<svg id="Capa_2" data-name="Capa 2" xmlns="http://www.w3.org/2000/svg" viewBox="0 0 590.48 590.6"><defs><style>.cls-1{fill:#aa443d;}</style></defs><title>LogoCiecode</title><path class="cls-1" d="M278.22,122.92v19.92c0,24-17.14,37.7-50.18,37.7s-50.18-13.71-50.18-37.7v-78c0-24,17.14-37.7,50.18-37.7s50.18,13.71,50.18,37.7V79.43H246.4V63.37c0-10.71-6.73-14.78-17.44-14.78s-17.44,4.07-17.44,14.78v81c0,10.71,6.73,14.57,17.44,14.57S246.4,155,246.4,144.34V122.92h31.82Z"/><path class="cls-1" d="M325.55,210c-5.23-5.23-11.66-2.77-18.73,4.29s-9.52,13.5-4.29,18.73l39.53,39.53c5.23,5.23,11.66,2.77,18.73-4.29s9.52-13.5,4.29-18.73Z"/><path class="cls-1" d="M416.91,296.06c-5.23-5.23-11.35-2.87-18.42,4.2L386,312.78l52.29,52.29,12.52-12.52c7.07-7.07,9.43-13.19,4.2-18.42Z"/><path class="cls-1" d="M0,0L124,124.06A104.51,104.51,0,0,1,315.7,50.26H559.6V79.43H328.14q1.16,4.56,1.91,9.28H559.6v79.56h-35.7V117.88H454.29v40h-35.7v-40H345.41v50.39H310.28a104.65,104.65,0,0,1-102.16,39.87l87.15,87.16L590.48,590.6V0H0ZM319.11,294L281,255.92c-11.71-11.71-6.49-30.32,15.32-52.13s40.42-27,52.13-15.32l38.07,38.07c11.71,11.71,6.49,30.32-15.32,52.13S330.83,305.7,319.11,294Zm34.18,30.54,35.14-35.14c22.21-22.21,39.5-26.74,51.21-15l37,37c11.71,11.71,7.19,29-15,51.21L426.5,397.74ZM518.5,485.74l-73.21-73.21L505.88,352l10.46,10.46L478,400.78l20.39,20.39,30.49-30.49,10.46,10.46-30.49,30.49,21.44,21.44,38.37-38.37,10.46,10.46Z"/></svg>