<?xml version="1.0" encoding="utf-8"?>
<!-- Generator: Adobe Illustrator 16.0.0, SVG Export Plug-In . SVG Version: 6.00 Build 0)  -->
<!DOCTYPE svg PUBLIC "-//W3C//DTD SVG 1.1//EN" "http://www.w3.org/Graphics/SVG/1.1/DTD/svg11.dtd">
<svg version="1.1" id="Capa_1" xmlns="http://www.w3.org/2000/svg" xmlns:xlink="http://www.w3.org/1999/xlink" x="0px" y="0px"
	 width="181.639px" height="191.063px" viewBox="0 0 181.639 191.063" enable-background="new 0 0 181.639 191.063"
	 xml:space="preserve">
<g>
	<path fill="#FDC642" d="M148.288,41.993c0-10.802-4.205-20.957-11.846-28.597l-1.553-1.552C127.253,4.206,117.097,0,106.294,0
		C95.493,0,85.337,4.206,77.7,11.844L11.847,77.697C4.208,85.335,0.001,95.491,0.001,106.293s4.207,20.956,11.846,28.596
		l1.553,1.554c7.639,7.638,17.793,11.845,28.596,11.845s20.957-4.207,28.596-11.845l65.854-65.854
		C144.083,62.951,148.288,52.795,148.288,41.993z M58.019,123.869c-4.281,4.279-9.971,6.637-16.023,6.637
		s-11.742-2.357-16.023-6.637l-1.553-1.554c-4.279-4.28-6.637-9.971-6.637-16.022c0-6.053,2.357-11.743,6.637-16.022L51.06,63.63
		l33.6,33.599L58.019,123.869z M123.872,58.016l-26.641,26.64l-33.6-33.599l26.641-26.64c4.279-4.28,9.969-6.637,16.021-6.637
		s11.744,2.357,16.025,6.639l1.553,1.552c4.279,4.28,6.637,9.97,6.637,16.022S128.151,53.736,123.872,58.016z"/>
	<path fill="#FDC642" d="M134.206,96.193c-0.002,0-0.002,0-0.002,0c-12.668,0-24.58,4.934-33.539,13.894
		c-8.959,8.959-13.893,20.871-13.893,33.54c0,12.671,4.934,24.583,13.893,33.543s20.871,13.894,33.541,13.894
		c26.156-0.001,47.434-21.281,47.434-47.436C181.64,117.473,160.36,96.193,134.206,96.193z M113.239,122.659
		c5.6-5.601,13.047-8.685,20.967-8.685c7.586,0,14.514,2.868,19.766,7.571l-48.592,29.062c-0.541-2.26-0.826-4.599-0.826-6.98
		C104.554,135.706,107.638,128.261,113.239,122.659z M134.206,173.282c-7.314,0-14.219-2.635-19.645-7.447l48.502-29.008
		c0.516,2.185,0.797,4.46,0.797,6.801C163.86,159.979,150.558,173.281,134.206,173.282z"/>
</g>
</svg>
