<?xml version="1.0" encoding="utf-8"?>
<!-- Generator: Adobe Illustrator 16.0.0, SVG Export Plug-In . SVG Version: 6.00 Build 0)  -->
<!DOCTYPE svg PUBLIC "-//W3C//DTD SVG 1.1//EN" "http://www.w3.org/Graphics/SVG/1.1/DTD/svg11.dtd">
<svg version="1.1" id="Capa_1" xmlns="http://www.w3.org/2000/svg" xmlns:xlink="http://www.w3.org/1999/xlink" x="0px" y="0px"
	 width="196.549px" height="193.9px" viewBox="0 0 196.549 193.9" enable-background="new 0 0 196.549 193.9" xml:space="preserve">
<path fill="#FDC642" d="M195.959,76.732c0-0.536,0.059-1.451,0.121-2.419c0.379-5.873,1.127-17.602-6.971-24.487l0.207-49.753
	L171.535,0l-0.16,38.522L119.277,6.03l-4.879,6.638c-0.279,0.382-2.977,4.119-5.5,9.839c-1.061-1.003-2.234-1.914-3.52-2.716
	l-7.207-4.495V0.036H80.391v4.17l-1.025-0.64c-3.551-2.215-7.633-3.385-11.805-3.385c-7.765,0-14.852,3.931-18.951,10.506
	l-0.443,0.71c-2.627,4.212-3.672,8.969-3.302,13.574c-4.386,1.72-8.166,4.812-10.756,8.966l-0.439,0.704
	c-2.628,4.213-3.673,8.971-3.304,13.576c-4.387,1.721-8.168,4.817-10.762,8.976l-0.432,0.694c-2.564,4.112-3.704,8.837-3.318,13.58
	c-4.381,1.723-8.156,4.817-10.749,8.973l-0.431,0.695c-3.157,5.06-4.153,11.046-2.807,16.855c0.883,3.813,2.713,7.247,5.293,10.052
	l-5.098,8.18l-0.266,0.613c-4.332,10.041-0.595,21.984,8.694,27.777l0.701,0.438c4.17,2.602,8.96,3.654,13.617,3.27
	c1.704,4.35,4.753,8.188,8.921,10.787l0.708,0.443c4.172,2.6,8.966,3.65,13.618,3.266c1.704,4.35,4.756,8.191,8.926,10.791
	l0.701,0.439c4.172,2.602,8.967,3.652,13.619,3.268c1.705,4.352,4.758,8.193,8.934,10.797l0.692,0.434
	c5.062,3.156,11.046,4.152,16.856,2.807c1.045-0.242,2.059-0.557,3.039-0.936v3.434h17.781v-22.48l11.953-17.391
	c0.316-0.441,0.6-0.859,0.871-1.295l13.811-22.141l4.551-7.834l-4.66-4.83c-8.617-8.932-12.414-18.566-11.287-28.634
	c0.84-7.507,4.182-12.767,4.477-13.215l4.42-6.08l-5.523-5.37c-1.031-1.002-2.133-1.756-3.197-2.484
	c-2.523-1.726-5.98-4.091-9.783-11.282c-3.65-6.903-1.762-14.796,0.584-20.37l52.68,32.855c0.646,0.402,1.314,2.441,0.836,9.872
	c-0.082,1.263-0.158,2.455-0.158,3.614l0.67,117.116l17.781-0.102L195.959,76.732z M68.996,84.199
	c0.274,1.184,0.072,2.402-0.571,3.433l-0.438,0.702c-0.836,1.342-2.281,2.142-3.867,2.142h-0.002c-0.347,0-0.684-0.047-1.014-0.124
	c-0.396-0.285-0.799-0.562-1.219-0.823L35.871,73.304c-0.422-0.264-0.854-0.51-1.289-0.742c-0.428-0.529-0.737-1.148-0.896-1.831
	c-0.274-1.183-0.071-2.402,0.577-3.44l0.431-0.693c0.837-1.343,2.284-2.143,3.872-2.143c0.346,0,0.682,0.048,1.012,0.123
	c0.396,0.286,0.801,0.563,1.221,0.826l26.014,16.224c0.422,0.264,0.853,0.511,1.289,0.744
	C68.529,82.898,68.838,83.519,68.996,84.199z M53.93,110.876l-0.439,0.703c-0.838,1.342-2.284,2.143-3.871,2.143
	c-0.854,0-1.659-0.232-2.393-0.689L21.211,96.805c-1.03-0.641-1.748-1.646-2.022-2.829c-0.273-1.183-0.071-2.401,0.577-3.44
	l0.432-0.694c0.837-1.342,2.283-2.143,3.87-2.143c0.346,0,0.683,0.049,1.012,0.124c0.397,0.286,0.803,0.563,1.222,0.826
	l26.014,16.223c0.42,0.262,0.85,0.508,1.283,0.74C54.783,107.08,54.979,109.193,53.93,110.876z M83.494,60.954
	c0.273,1.183,0.072,2.401-0.573,3.436l-0.437,0.7c-0.836,1.341-2.282,2.142-3.868,2.142c0,0,0,0-0.001,0
	c-0.346,0-0.682-0.049-1.01-0.125c-0.398-0.286-0.803-0.563-1.223-0.824L50.369,50.058c-0.42-0.263-0.85-0.509-1.285-0.741
	c-1.184-1.467-1.38-3.578-0.33-5.262l0.44-0.705c0.836-1.342,2.282-2.142,3.87-2.142c0.347,0,0.683,0.049,1.012,0.125
	c0.396,0.284,0.8,0.562,1.219,0.823l26.016,16.226c0.422,0.264,0.852,0.509,1.288,0.742C83.027,59.652,83.337,60.272,83.494,60.954z
	 M63.248,20.815l0.445-0.711c0.836-1.341,2.281-2.143,3.867-2.143c0.854,0,1.659,0.233,2.395,0.69l26.016,16.226
	c2.127,1.327,2.777,4.136,1.451,6.261l-0.438,0.703c-0.838,1.342-2.285,2.144-3.873,2.144c-0.346,0-0.682-0.05-1.01-0.125
	c-0.398-0.286-0.802-0.563-1.221-0.824L64.867,26.812c-0.422-0.263-0.852-0.508-1.285-0.741
	C62.396,24.605,62.201,22.495,63.248,20.815z M26.452,129.074c-1.442,1.688-3.956,2.07-5.85,0.889l-0.702-0.436
	c-1.752-1.094-2.537-3.256-1.946-5.188l3.863-6.199l9.122,5.691L26.452,129.074z M127.748,124.99l-11.391,18.264
	c-0.086,0.133-0.176,0.264-0.268,0.389l-9.719,14.139l-9.551,13.895l-0.217,0.33c-0.643,1.029-1.648,1.75-2.832,2.023
	s-2.4,0.07-3.439-0.576l-0.695-0.432c-1.893-1.182-2.655-3.609-1.775-5.646l7.078-16.393l-10.559-6.279L72.943,158.07
	c-1.442,1.688-3.957,2.068-5.851,0.889l-0.7-0.438c-1.893-1.18-2.656-3.607-1.776-5.646l6.843-15.859l-10.703-6.365l-11.059,12.924
	c-1.441,1.686-3.957,2.066-5.844,0.891l-0.708-0.441c-1.892-1.18-2.655-3.605-1.775-5.645l3.222-7.461
	c1.641,0.381,3.324,0.586,5.026,0.586c7.765,0,14.853-3.932,18.956-10.51l0.44-0.705c2.626-4.213,3.672-8.971,3.302-13.576
	c4.387-1.721,8.167-4.814,10.758-8.97l0.438-0.701c2.564-4.112,3.703-8.835,3.318-13.58c4.381-1.721,8.154-4.815,10.744-8.968
	l0.436-0.698c2.564-4.112,3.703-8.836,3.316-13.58c2.18-0.855,4.207-2.05,6.014-3.547c0.357,0.82,0.746,1.64,1.178,2.456
	c3.871,7.317,7.912,11.666,11.176,14.437c-1.371,3.34-2.719,7.634-3.391,12.645C114.99,96.02,116.121,110.289,127.748,124.99z"/>
</svg>
