<?xml version="1.0" encoding="utf-8"?>
<!-- Generator: Adobe Illustrator 16.0.0, SVG Export Plug-In . SVG Version: 6.00 Build 0)  -->
<!DOCTYPE svg PUBLIC "-//W3C//DTD SVG 1.1//EN" "http://www.w3.org/Graphics/SVG/1.1/DTD/svg11.dtd">
<svg version="1.1" id="Capa_1" xmlns="http://www.w3.org/2000/svg" xmlns:xlink="http://www.w3.org/1999/xlink" x="0px" y="0px"
	 width="152.761px" height="202.448px" viewBox="0 0 152.761 202.448" enable-background="new 0 0 152.761 202.448"
	 xml:space="preserve">
<g>
	<path fill="#FDC642" d="M123.715,117.288l-51.59,16.044V71.972C87.988,67.99,99.77,53.615,99.77,36.536
		C99.77,16.39,83.381,0,63.234,0S26.699,16.39,26.699,36.536c0,17.079,11.781,31.454,27.645,35.436v85.513l62.365-19.396
		l21.574,30.258l14.479-10.324L123.715,117.288z M44.479,36.536c0-10.342,8.414-18.755,18.756-18.755s18.754,8.413,18.754,18.755
		c0,10.341-8.412,18.754-18.754,18.754S44.479,46.877,44.479,36.536z"/>
	<path fill="#FDC642" d="M29.295,164.112C11.176,141.5,14.828,108.36,37.439,90.24L26.32,76.364
		c-30.262,24.253-35.152,68.605-10.898,98.867c13.873,17.314,34.322,26.32,54.951,26.32c15.432,0,30.965-5.043,43.916-15.42
		l-11.121-13.875C80.555,190.377,47.418,186.723,29.295,164.112z"/>
</g>
</svg>
