<?xml version="1.0" encoding="utf-8"?>
<!-- Generator: Adobe Illustrator 16.0.0, SVG Export Plug-In . SVG Version: 6.00 Build 0)  -->
<!DOCTYPE svg PUBLIC "-//W3C//DTD SVG 1.1//EN" "http://www.w3.org/Graphics/SVG/1.1/DTD/svg11.dtd">
<svg version="1.1" id="Capa_1" xmlns="http://www.w3.org/2000/svg" xmlns:xlink="http://www.w3.org/1999/xlink" x="0px" y="0px"
	 width="187.047px" height="185.762px" viewBox="0 0 187.047 185.762" enable-background="new 0 0 187.047 185.762"
	 xml:space="preserve">
<path fill="#FDC642" d="M109.77,23.562l-1.408,1.39c-0.766,0.757-76.98,76.011-105.248,105.251l-3.112,3.219l1.103,4.34
	c5.569,21.91,18.356,33.646,28.104,39.631c10.462,6.426,19.578,7.74,20.582,7.869l3.91,0.5L162.785,76.677L187.047,0L109.77,23.562z
	 M48.25,168.499c-1.079-0.316-2.362-0.746-3.782-1.316l99.612-99.613l-11.355-11.357L30.592,158.346
	c-0.854-0.799-1.697-1.656-2.529-2.572L130.174,53.663l-11.355-11.356l-99.505,99.504c-0.501-1.209-0.974-2.469-1.411-3.785
	c27.939-28.68,90.186-90.226,100.336-100.255l36.787-11.217l5.145,5.146l-11.514,36.393L48.25,168.499z"/>
</svg>
