<?xml version="1.0" encoding="utf-8"?>
<!-- Generator: Adobe Illustrator 16.0.0, SVG Export Plug-In . SVG Version: 6.00 Build 0)  -->
<!DOCTYPE svg PUBLIC "-//W3C//DTD SVG 1.1//EN" "http://www.w3.org/Graphics/SVG/1.1/DTD/svg11.dtd">
<svg version="1.1" id="Capa_1" xmlns="http://www.w3.org/2000/svg" xmlns:xlink="http://www.w3.org/1999/xlink" x="0px" y="0px"
	 width="202.897px" height="177.276px" viewBox="0 0 202.897 177.276" enable-background="new 0 0 202.897 177.276"
	 xml:space="preserve">
<path d="M169.836,30.178h-22.17c-0.811-10.205-4.252-18.074-10.27-23.428c-7.777-6.919-16.932-6.884-19.625-6.701H88.062
	c-14.635,0-22.543,5.943-26.6,10.928c-5.02,6.171-6.531,13.475-6.797,19.2H33.062C14.831,30.178,0,45.009,0,63.24v80.974
	c0,18.23,14.831,33.062,33.062,33.062h136.774c18.23,0,33.061-14.832,33.061-33.062V63.24
	C202.896,45.009,188.066,30.178,169.836,30.178z M75.297,22.15c2.365-2.865,6.66-4.318,12.766-4.318h30.068l0.346,0.048l0.611-0.097
	c0.607-0.024,3.998-0.062,6.619,2.37c2.156,2,3.545,5.423,4.098,10.025H72.496C72.727,27.415,73.469,24.365,75.297,22.15z
	 M185.117,144.214c0,8.426-6.855,15.281-15.281,15.281H33.062c-8.426,0-15.28-6.855-15.28-15.281V63.24
	c0-8.427,6.854-15.281,15.28-15.281h136.774c8.426,0,15.281,6.854,15.281,15.281V144.214z"/>
</svg>
