<?xml version="1.0" encoding="utf-8"?>
<!-- Generator: Adobe Illustrator 16.0.0, SVG Export Plug-In . SVG Version: 6.00 Build 0)  -->
<!DOCTYPE svg PUBLIC "-//W3C//DTD SVG 1.1//EN" "http://www.w3.org/Graphics/SVG/1.1/DTD/svg11.dtd">
<svg version="1.1" id="Capa_1" xmlns="http://www.w3.org/2000/svg" xmlns:xlink="http://www.w3.org/1999/xlink" x="0px" y="0px"
	 width="184.704px" height="184.569px" viewBox="0 0 184.704 184.569" enable-background="new 0 0 184.704 184.569"
	 xml:space="preserve">
<path fill="#FDC642" d="M92.352,0C41.429,0,0,41.428,0,92.351c0,50.924,41.429,92.352,92.352,92.352s92.353-41.428,92.353-92.352
	C184.704,41.428,143.274,0,92.352,0z M54.77,92.869c-10.179,0-18.43-8.253-18.43-18.431c0-10.179,8.251-18.431,18.43-18.431
	c10.178,0,18.43,8.252,18.43,18.431C73.199,84.616,64.947,92.869,54.77,92.869z M92.352,166.922V17.78
	c41.118,0,74.571,33.452,74.571,74.57S133.47,166.922,92.352,166.922z M119.964,92.869c-10.18,0-18.432-8.253-18.432-18.431
	c0-10.179,8.252-18.431,18.432-18.431c10.178,0,18.43,8.252,18.43,18.431C138.394,84.616,130.142,92.869,119.964,92.869z"/>
</svg>
