<?xml version="1.0" encoding="utf-8"?>
<!-- Generator: Adobe Illustrator 16.0.0, SVG Export Plug-In . SVG Version: 6.00 Build 0)  -->
<!DOCTYPE svg PUBLIC "-//W3C//DTD SVG 1.1//EN" "http://www.w3.org/Graphics/SVG/1.1/DTD/svg11.dtd">
<svg version="1.1" id="Capa_1" xmlns="http://www.w3.org/2000/svg" xmlns:xlink="http://www.w3.org/1999/xlink" x="0px" y="0px"
	 width="192.913px" height="196.783px" viewBox="0 0 192.913 196.783" enable-background="new 0 0 192.913 196.783"
	 xml:space="preserve">
<path fill="#FDC642" d="M152.52,196.783l-17.658-2.096l10.18-85.687l28.387-46.911c3.213-5.088,0.221-4.712,0.08-4.683
	c-0.584,0.131-1.605,1.176-2.107,1.989l-26.99,42.658h-17.164c0,0,6.496-73.462,6.566-74.21c0.471-5.082-1.779-4.104-2.463-3.423
	c-0.34,0.297-0.604,1.711-0.6,1.908l-6.77,71.772l-18.918-4.208l-0.701-6.316c0,0-7.113-64.425-7.182-64.998
	c-0.648-5.492-3.258-4.081-3.645-3.551c-0.447,0.614-0.463,1.798-0.461,1.808l8.256,73.201l-18.031,6.012l-2.891-8.273
	C73.391,71.691,61.797,37.48,60.861,34.598c-1.807-5.574-4.697-2.699-4.805-2.618c-0.299,0.739,0.076,3.004,0.48,3.953
	l20.127,57.681l5.879,53.813l-13.682-5.367c-1.043-0.41-25.738-10.11-41.48-17.179c-2.379-1.068-4.043-1.358-5.75-0.176
	c11.734,7.904,34.924,23.363,51.549,34.416l1.309,0.871l10.684,14.529v21.214H67.391v-15.38l-5.365-7.298
	c-3.945-2.624-16.199-10.778-28.445-18.952c-8.639-5.767-15.52-10.373-20.449-13.689c-2.805-1.886-5.137-3.464-6.768-4.577
	c-0.854-0.584-1.523-1.045-1.977-1.365c-6.656-4.692-3.855-10.957-3.514-11.655c0,0,8.055-10.943,10.719-12.776
	c6.658-4.581,14.852-5.072,23.072-1.382c7.988,3.587,18.611,7.975,27,11.372l-2.455-22.477L40.037,42.56
	c-0.904-2.258-3.674-10.422-0.076-18.136c1.549-3.326,4.873-7.741,11.896-9.888c7.65-2.337,13.146-0.56,16.412,1.344
	c2.951,1.722,5.402,4.306,7.215,7.546c-0.277-2.003-0.781-8.742,3.68-14.866c2.318-3.183,6.818-7.23,15.09-8.441l0.75-0.077
	c7.674-0.469,13.971,3.092,17.254,9.759c1.43,2.906,2.057,5.919,2.365,8.352c0.889-2.169,2.244-4.444,4.314-6.462
	c2.68-2.613,7.498-5.644,15.271-5.232c7.5,0.395,11.668,3.629,13.846,6.272c4.998,6.072,3.893,13.866,3.361,17.611
	c-0.059,0.418-1.561,17.386-2.83,31.882l7.365-11.634c1.15-2.013,5.4-8.506,13.307-10.447c3.766-0.925,9.66-1.074,16.348,3.473
	c3.938,2.679,6.43,6.483,7.205,11.006c1.375,8.02-3.256,15.439-4.77,17.604l-25.797,42.687L152.52,196.783z"/>
</svg>
