<?xml version="1.0" encoding="utf-8"?>
<!-- Generator: Adobe Illustrator 16.0.0, SVG Export Plug-In . SVG Version: 6.00 Build 0)  -->
<!DOCTYPE svg PUBLIC "-//W3C//DTD SVG 1.1//EN" "http://www.w3.org/Graphics/SVG/1.1/DTD/svg11.dtd">
<svg version="1.1" id="Capa_1" xmlns="http://www.w3.org/2000/svg" xmlns:xlink="http://www.w3.org/1999/xlink" x="0px" y="0px"
	 width="216.076px" height="215.983px" viewBox="0 0 216.076 215.983" enable-background="new 0 0 216.076 215.983"
	 xml:space="preserve">
<path d="M108.038,0C48.466,0,0,48.466,0,108.039c0,59.571,48.466,108.038,108.037,108.038c59.573,0,108.038-48.467,108.038-108.038
	C216.076,48.466,167.611,0,108.038,0z M197.857,99.148h-44.461l41.173-16.785C196.175,87.765,197.291,93.377,197.857,99.148z
	 M187.837,65.905l-42.365,17.271l32.334-32.334C181.63,55.497,184.994,60.543,187.837,65.905z M165.234,38.27l-30.629,30.628
	l17.166-39.79C156.539,31.76,161.044,34.828,165.234,38.27z M116.929,18.219c6.393,0.628,12.591,1.927,18.525,3.823l-18.525,42.943
	V18.219z M99.148,18.219v42.335L83.831,21.082C88.779,19.702,93.898,18.734,99.148,18.219z M67.26,27.531l17.221,44.377
	L50.842,38.27C55.888,34.125,61.39,30.518,67.26,27.531z M38.269,50.843l33.618,33.618L27.542,67.238
	C30.527,61.377,34.13,55.882,38.269,50.843z M21.089,83.806l39.503,15.343H18.219C18.735,93.889,19.706,88.763,21.089,83.806z
	 M18.219,116.929h44.462l-41.174,16.786C19.901,128.312,18.786,122.7,18.219,116.929z M28.24,150.172l42.362-17.271l-32.333,32.332
	C34.447,160.579,31.082,155.534,28.24,150.172z M50.842,177.807l30.629-30.628l-17.166,39.79
	C59.538,184.316,55.032,181.249,50.842,177.807z M99.148,197.857c-6.393-0.627-12.592-1.927-18.526-3.823l18.526-42.942V197.857z
	 M88.107,108.039c0-10.991,8.94-19.933,19.931-19.933c10.991,0,19.933,8.941,19.933,19.933c0,10.989-8.941,19.932-19.933,19.932
	C97.047,127.971,88.107,119.028,88.107,108.039z M116.929,197.857v-42.336l15.318,39.474
	C127.297,196.374,122.179,197.342,116.929,197.857z M148.816,188.544l-17.221-44.375l33.639,33.638
	C160.188,181.951,154.687,185.559,148.816,188.544z M177.807,165.233l-33.618-33.616l44.344,17.223
	C185.55,154.701,181.946,160.194,177.807,165.233z M194.987,132.271l-39.501-15.342h42.371
	C197.341,122.188,196.371,127.314,194.987,132.271z"/>
</svg>
