<?xml version="1.0" encoding="utf-8"?>
<!-- Generator: Adobe Illustrator 16.0.0, SVG Export Plug-In . SVG Version: 6.00 Build 0)  -->
<!DOCTYPE svg PUBLIC "-//W3C//DTD SVG 1.1//EN" "http://www.w3.org/Graphics/SVG/1.1/DTD/svg11.dtd">
<svg version="1.1" id="Capa_1" xmlns="http://www.w3.org/2000/svg" xmlns:xlink="http://www.w3.org/1999/xlink" x="0px" y="0px"
	 width="133.614px" height="233.427px" viewBox="0 0 133.614 233.427" enable-background="new 0 0 133.614 233.427"
	 xml:space="preserve">
<path d="M63.191,199.695c14.731-11.457,15.67-25.326,13.383-34.057l57.039-98.832L66.807,0L0,66.807l58.926,102.1
	c0.209,0.5,0.988,2.572,0.768,5.254c-0.334,4.062-2.83,7.932-7.418,11.5c-13.543,10.533-14.851,26.746-9.141,37.316
	c4.053,7.504,11.2,11.729,19.037,11.729c2.461,0,4.99-0.416,7.51-1.279l-5.752-16.824c-1.682,0.576-3.609,0.777-5.151-2.074
	C57.036,211.301,56.773,204.688,63.191,199.695z M66.807,25.146l44.588,44.589L66.807,146.99L22.218,69.734L66.807,25.146z"/>
</svg>
