<?xml version="1.0" encoding="utf-8"?>
<!-- Generator: Adobe Illustrator 19.1.0, SVG Export Plug-In . SVG Version: 6.00 Build 0)  -->
<svg version="1.1" id="Capa_1" xmlns="http://www.w3.org/2000/svg" xmlns:xlink="http://www.w3.org/1999/xlink" x="0px" y="0px"
	 viewBox="-349 227.6 141.7 141.7" style="enable-background:new -349 227.6 141.7 141.7;" xml:space="preserve">
<style type="text/css">
	.st0{fill:#1D1D1B;}
</style>
<g>
	<g>
		<path class="st0" d="M-283,284.6h13.6l-6.8,32.2c-0.2,0.5-0.3,1-0.3,1.5c0,0.5-0.1,1-0.1,1.5c0,1.3,0.3,2.2,0.9,2.7
			c0.6,0.5,1.6,0.8,2.9,0.8c0.9,0,1.5-0.1,1.9-0.2c0.4-0.1,0.8-0.3,1.1-0.4c-0.1,1.7-0.5,3.2-1.1,4.4c-0.6,1.2-1.4,2.2-2.4,3
			c-1,0.8-2,1.4-3.2,1.8c-1.2,0.4-2.4,0.6-3.7,0.6c-1.4,0-2.7-0.2-4-0.6c-1.2-0.4-2.3-1.1-3.2-2c-0.9-0.9-1.6-2.1-2.1-3.5
			c-0.5-1.4-0.8-3.1-0.8-5.1c0-0.9,0.1-1.8,0.2-2.8c0.1-1,0.3-2.1,0.6-3.4L-283,284.6z M-266.1,272c0,1-0.2,2-0.6,2.9
			c-0.4,0.9-0.9,1.7-1.6,2.4c-0.7,0.7-1.5,1.2-2.4,1.6c-0.9,0.4-1.9,0.6-2.9,0.6c-1,0-2-0.2-2.9-0.6c-0.9-0.4-1.7-0.9-2.4-1.6
			c-0.7-0.7-1.2-1.4-1.6-2.4c-0.4-0.9-0.6-1.9-0.6-2.9c0-1,0.2-2,0.6-2.9c0.4-0.9,0.9-1.7,1.6-2.4c0.7-0.7,1.5-1.2,2.4-1.6
			c0.9-0.4,1.9-0.6,2.9-0.6c1,0,2,0.2,2.9,0.6c0.9,0.4,1.7,0.9,2.4,1.6c0.7,0.7,1.2,1.5,1.6,2.4C-266.3,270-266.1,270.9-266.1,272z"
			/>
	</g>
</g>
<g>
	<path class="st0" d="M-278.1,352.4c-29.8,0-54-24.2-54-54s24.2-54,54-54c29.8,0,54,24.2,54,54S-248.4,352.4-278.1,352.4z
		 M-278.1,253.3c-24.9,0-45.1,20.2-45.1,45.1c0,24.9,20.2,45.1,45.1,45.1s45.1-20.2,45.1-45.1C-233,273.5-253.3,253.3-278.1,253.3z"
		/>
</g>
</svg>
