<?xml version="1.0" encoding="utf-8"?>
<!-- Generator: Adobe Illustrator 16.0.0, SVG Export Plug-In . SVG Version: 6.00 Build 0)  -->
<!DOCTYPE svg PUBLIC "-//W3C//DTD SVG 1.1//EN" "http://www.w3.org/Graphics/SVG/1.1/DTD/svg11.dtd">
<svg version="1.1" id="Capa_1" xmlns="http://www.w3.org/2000/svg" xmlns:xlink="http://www.w3.org/1999/xlink" x="0px" y="0px"
	 width="56.511px" height="174.366px" viewBox="0 0 56.511 174.366" enable-background="new 0 0 56.511 174.366"
	 xml:space="preserve">
<path fill="#FDC642" d="M17.793,174.366H0.012V47.945c0-0.458-0.003-0.956-0.005-1.489C-0.04,36.294-0.127,17.378,10.348,6.854
	C14.812,2.37,20.688,0,27.341,0c7.295,0,13.749,2.609,18.663,7.547c10.295,10.341,10.515,27.416,10.507,29.329l-17.781-0.082
	c0-0.024-0.042-5.819-2.077-11.234c-2.577-6.854-6.153-7.778-9.312-7.778c-2.451,0-3.595,0.817-4.392,1.617
	c-5.262,5.286-5.189,21.043-5.162,26.976c0.002,0.562,0.006,1.088,0.006,1.571V174.366z"/>
</svg>
