<?xml version="1.0" encoding="utf-8"?>
<!-- Generator: Adobe Illustrator 16.0.0, SVG Export Plug-In . SVG Version: 6.00 Build 0)  -->
<!DOCTYPE svg PUBLIC "-//W3C//DTD SVG 1.1//EN" "http://www.w3.org/Graphics/SVG/1.1/DTD/svg11.dtd">
<svg version="1.1" id="Capa_1" xmlns="http://www.w3.org/2000/svg" xmlns:xlink="http://www.w3.org/1999/xlink" x="0px" y="0px"
	 width="189.64px" height="175.767px" viewBox="0 0 189.64 175.767" enable-background="new 0 0 189.64 175.767"
	 xml:space="preserve">
<path d="M180.95,58.887L73.484,119.089c-8.328-3.955-15.469-9.991-20.812-17.636c-1.404-2.009-2.65-4.099-3.753-6.253h47.409V77.419
	H43.493c-0.254-2.117-0.387-4.258-0.387-6.417c0-1.236,0.057-2.458,0.141-3.673h53.081V49.548H47.638
	c8.268-18.688,26.975-31.767,48.689-31.767c12.869,0,25.289,4.653,34.972,13.104l11.691-13.397C130.067,6.21,113.495,0,96.328,0
	c-31.676,0-58.57,20.852-67.687,49.548H3.178v17.781h22.24c-0.062,1.217-0.094,2.441-0.094,3.673c0,2.154,0.107,4.293,0.297,6.417
	H3.178v17.781h26.378c2.099,5.785,4.954,11.307,8.542,16.44c4.805,6.873,10.71,12.765,17.451,17.495L0,160.255l8.689,15.512
	L189.64,74.4L180.95,58.887z"/>
</svg>
