<?xml version="1.0" encoding="utf-8"?>
<!-- Generator: Adobe Illustrator 16.0.0, SVG Export Plug-In . SVG Version: 6.00 Build 0)  -->
<!DOCTYPE svg PUBLIC "-//W3C//DTD SVG 1.1//EN" "http://www.w3.org/Graphics/SVG/1.1/DTD/svg11.dtd">
<svg version="1.1" id="Capa_1" xmlns="http://www.w3.org/2000/svg" xmlns:xlink="http://www.w3.org/1999/xlink" x="0px" y="0px"
	 width="203.911px" height="125.903px" viewBox="0 0 203.911 125.903" enable-background="new 0 0 203.911 125.903"
	 xml:space="preserve">
<path fill="#FDC642" d="M198.129,27.362l5.781-17.781h-10.65L196.117,0h-16.941l-3.055,9.581H74.48L77.338,0H60.396l-3.054,9.581
	h-11.34l-5.781,17.781h11.453l-3.418,10.726H35.505L29.726,55.87h12.863l-4.217,13.227H0v17.779h12.013
	c-2.396,4.68-4.527,10.516-6.234,17.781c-3.537,15.061-1.773,17.729-1.783,18.354l17.779,0.289
	c0.002-0.133-1.789-1.359,1.314-14.576c1.537-6.539,5.945-21.748,13.693-21.748c1.543,0,2.645,0.5,3.805,1.729
	c5.855,6.195,7.594,24.885,6.959,36.168l17.751,1.031c0.164-2.84,1.105-23.555-5.332-39.027h71.826
	c-2.395,4.68-4.525,10.516-6.23,17.781c-3.539,15.061-1.775,17.729-1.785,18.354l17.779,0.289c0.002-0.133-1.791-1.359,1.314-14.576
	c1.537-6.539,5.945-21.748,13.693-21.748c1.541,0,2.645,0.5,3.805,1.729c5.855,6.195,7.594,24.885,6.957,36.168l17.752,1.031
	c0.166-2.84,1.107-23.555-5.332-39.027h3.014V69.097h-7.242l3.943-13.227h10.533l5.781-17.782H184.76l3.197-10.726H198.129z
	 M157.15,69.097H56.739l3.94-13.227h100.686L157.15,69.097z M167.035,38.088H65.982l3.197-10.726h101.273L167.035,38.088z"/>
</svg>
