<?xml version="1.0" encoding="utf-8"?>
<!-- Generator: Adobe Illustrator 16.0.0, SVG Export Plug-In . SVG Version: 6.00 Build 0)  -->
<!DOCTYPE svg PUBLIC "-//W3C//DTD SVG 1.1//EN" "http://www.w3.org/Graphics/SVG/1.1/DTD/svg11.dtd">
<svg version="1.1" id="Capa_1" xmlns="http://www.w3.org/2000/svg" xmlns:xlink="http://www.w3.org/1999/xlink" x="0px" y="0px"
	 width="141.73px" height="141.73px" viewBox="0 0 141.73 141.73" enable-background="new 0 0 141.73 141.73" xml:space="preserve">
<circle fill="#FDC642" cx="70.865" cy="70.866" r="70.866"/>
<path d="M113.931,56.367L60.198,86.469c-4.164-1.979-7.734-4.996-10.407-8.818c-0.701-1.004-1.324-2.049-1.876-3.127h23.704v-8.89
	H45.202c-0.127-1.059-0.193-2.129-0.193-3.209c0-0.618,0.028-1.229,0.07-1.837h26.54v-8.891H47.274
	c4.134-9.344,13.487-15.883,24.345-15.883c6.436-0.001,12.646,2.326,17.486,6.552l5.846-6.699
	c-6.461-5.639-14.747-8.743-23.332-8.743c-15.838,0-29.285,10.426-33.843,24.773H25.045v8.891h11.12
	c-0.031,0.608-0.047,1.222-0.047,1.837c0,1.077,0.054,2.146,0.149,3.209H25.045v8.89h13.188c1.049,2.893,2.478,5.654,4.271,8.221
	c2.402,3.436,5.355,6.383,8.726,8.748l-27.775,15.559l4.346,7.756l90.475-50.683L113.931,56.367z"/>
</svg>
