<?xml version="1.0" encoding="UTF-8" standalone="no"?>
<!-- Generator: Adobe Illustrator 16.0.0, SVG Export Plug-In . SVG Version: 6.00 Build 0)  -->

<svg
   xmlns:dc="http://purl.org/dc/elements/1.1/"
   xmlns:cc="http://creativecommons.org/ns#"
   xmlns:rdf="http://www.w3.org/1999/02/22-rdf-syntax-ns#"
   xmlns:svg="http://www.w3.org/2000/svg"
   xmlns="http://www.w3.org/2000/svg"
   xmlns:sodipodi="http://sodipodi.sourceforge.net/DTD/sodipodi-0.dtd"
   xmlns:inkscape="http://www.inkscape.org/namespaces/inkscape"
   version="1.1"
   id="Capa_1"
   x="0px"
   y="0px"
   width="96.719px"
   height="24.035px"
   viewBox="0 0 96.719 24.035"
   enable-background="new 0 0 96.719 24.035"
   xml:space="preserve"
   inkscape:version="0.48.2 r9819"
   sodipodi:docname="logo2.svg"><metadata
   id="metadata33"><rdf:RDF><cc:Work
       rdf:about=""><dc:format>image/svg+xml</dc:format><dc:type
         rdf:resource="http://purl.org/dc/dcmitype/StillImage" /></cc:Work></rdf:RDF></metadata><defs
   id="defs31" /><sodipodi:namedview
   pagecolor="#ffffff"
   bordercolor="#666666"
   borderopacity="1"
   objecttolerance="10"
   gridtolerance="10"
   guidetolerance="10"
   inkscape:pageopacity="0"
   inkscape:pageshadow="2"
   inkscape:window-width="640"
   inkscape:window-height="480"
   id="namedview29"
   showgrid="false"
   inkscape:zoom="4.5699396"
   inkscape:cx="48.359501"
   inkscape:cy="12.0175"
   inkscape:window-x="0"
   inkscape:window-y="0"
   inkscape:window-maximized="0"
   inkscape:current-layer="Capa_1" />
<path
   fill="#FBC239"
   d="M14.095,6.833l3.067-5.14L14.324,0l-2.153,3.608L10.018,0l-2.84,1.693l3.068,5.141L0,24.035h24.281  L14.095,6.833z M5.822,20.73l6.318-10.586l6.32,10.586H5.822z"
   id="path3" />
<g
   id="g5"
   transform="translate(-0.21882127,-5.2517105)">
	<path
   d="m 32.99,11.161 h 9.348 v 2.388 h -3.289 v 8.242 H 36.262 V 13.549 H 32.99 v -2.388 z"
   id="path7"
   inkscape:connector-curvature="0"
   style="fill:#151416" />
</g>
<g
   id="g9"
   transform="translate(-0.21882127,-5.2517105)">
	<path
   d="m 74.854,18.484 v 3.308 h -2.752 v -10.63 h 4.656 c 2.303,0 3.859,1.299 3.859,3.669 0,2.355 -1.557,3.653 -3.859,3.653 h -1.904 z m 1.609,-4.985 h -1.609 v 2.666 h 1.609 c 1.004,0 1.455,-0.537 1.455,-1.334 0,-0.813 -0.451,-1.332 -1.455,-1.332 z"
   id="path11"
   inkscape:connector-curvature="0"
   style="fill:#151416" />
</g>
<g
   id="g13"
   transform="translate(-0.21882127,-5.2517105)">
	<circle
   cx="95.325996"
   cy="12.548"
   r="1.393"
   id="circle15"
   d="m 96.718996,12.548 c 0,0.769333 -0.623667,1.393 -1.393,1.393 -0.769332,0 -1.393,-0.623667 -1.393,-1.393 0,-0.769332 0.623668,-1.393 1.393,-1.393 0.769333,0 1.393,0.623668 1.393,1.393 z"
   sodipodi:cx="95.325996"
   sodipodi:cy="12.548"
   sodipodi:rx="1.393"
   sodipodi:ry="1.393"
   style="fill:#151416" />
</g>
<g
   id="g17"
   transform="translate(-0.21882127,-5.2517105)">
	<circle
   cx="56.995998"
   cy="20.337999"
   r="1.393"
   id="circle19"
   d="m 58.388998,20.337999 c 0,0.769333 -0.623667,1.393 -1.393,1.393 -0.769332,0 -1.393,-0.623667 -1.393,-1.393 0,-0.769332 0.623668,-1.393 1.393,-1.393 0.769333,0 1.393,0.623668 1.393,1.393 z"
   sodipodi:cx="56.995998"
   sodipodi:cy="20.337999"
   sodipodi:rx="1.393"
   sodipodi:ry="1.393"
   style="fill:#151416" />
</g>
<g
   id="g21"
   transform="translate(-0.21882127,-5.2517105)">
	<path
   d="m 55.604,11.089 h 2.787 v 6.689 h -2.787 v -6.689 z"
   id="path23"
   inkscape:connector-curvature="0"
   style="fill:#151416" />
</g>
<g
   id="g25"
   transform="translate(-0.21882127,-5.2517105)">
	<path
   d="m 96.719,21.797 h -2.787 v -6.689 h 2.787 v 6.689 z"
   id="path27"
   inkscape:connector-curvature="0"
   style="fill:#151416" />
</g>
</svg>