<?xml version="1.0" encoding="utf-8"?>
<!-- Generator: Adobe Illustrator 16.0.0, SVG Export Plug-In . SVG Version: 6.00 Build 0)  -->
<!DOCTYPE svg PUBLIC "-//W3C//DTD SVG 1.1//EN" "http://www.w3.org/Graphics/SVG/1.1/DTD/svg11.dtd">
<svg version="1.1" id="Capa_1" xmlns="http://www.w3.org/2000/svg" xmlns:xlink="http://www.w3.org/1999/xlink" x="0px" y="0px"
	 width="175.225px" height="40.856px" viewBox="0 0 175.225 40.856" enable-background="new 0 0 175.225 40.856"
	 xml:space="preserve">
<path fill="#FBC239" d="M63.668,24.04L53.48,6.836l3.068-5.143L53.709,0l-2.153,3.609L49.402,0l-2.838,1.693l3.066,5.141
	L39.385,24.04H63.668z M45.207,20.732l6.318-10.59l6.32,10.59H45.207z"/>
<polygon fill="#151416" points="72.377,13.52 75.648,13.52 75.648,21.758 78.436,21.758 78.436,13.52 81.725,13.52 81.725,11.131 
	72.377,11.131 "/>
<path fill="#151416" d="M114.238,18.453h1.904c2.303,0,3.861-1.299,3.861-3.654c0-2.369-1.559-3.668-3.861-3.668h-4.656v10.627
	h2.752V18.453z M114.238,13.467h1.609c1.006,0,1.455,0.52,1.455,1.332c0,0.799-0.449,1.334-1.455,1.334h-1.609V13.467z"/>
<rect x="133.316" y="15.068" fill="#151416" width="2.787" height="6.69"/>
<circle fill="#151416" cx="96.383" cy="20.307" r="1.393"/>
<circle fill="#151416" cx="134.709" cy="12.523" r="1.393"/>
<rect x="94.99" y="11.059" fill="#151416" width="2.787" height="6.689"/>
<polygon fill="#151416" points="0,37.668 1.076,37.668 1.076,40.379 1.992,40.379 1.992,37.668 3.075,37.668 3.075,36.881 0,36.881 
	"/>
<path fill="#151416" d="M6.633,38.073c0-0.764-0.518-1.191-1.27-1.191H3.792v3.498h0.905v-1.156h0.318l0.73,1.156H6.76l-0.82-1.254
	C6.366,38.965,6.633,38.602,6.633,38.073z M5.268,38.493h-0.57v-0.844h0.57c0.324,0,0.472,0.168,0.472,0.424
	S5.592,38.493,5.268,38.493z"/>
<path fill="#151416" d="M8.512,36.881L7.18,40.379h0.905L8.33,39.7H9.6l0.252,0.68h0.928l-1.333-3.498H8.512z M8.609,38.95
	l0.359-0.986l0.357,0.986H8.609z"/>
<polygon fill="#151416" points="13.625,38.807 12.276,36.881 11.422,36.881 11.422,40.379 12.305,40.379 12.305,38.334 
	13.768,40.379 14.509,40.379 14.509,36.881 13.625,36.881 "/>
<path fill="#151416" d="M17.15,38.299l-0.684-0.16c-0.182-0.039-0.291-0.125-0.291-0.279c0-0.191,0.178-0.307,0.439-0.307
	c0.301,0,0.461,0.148,0.535,0.342h0.894c-0.097-0.604-0.581-1.07-1.435-1.07c-0.775,0-1.344,0.449-1.344,1.133
	c0,0.594,0.387,0.859,0.899,0.975l0.672,0.141c0.223,0.053,0.33,0.127,0.33,0.291c0,0.217-0.193,0.336-0.472,0.336
	c-0.285,0-0.491-0.119-0.564-0.357H15.18c0.125,0.689,0.695,1.094,1.532,1.094c0.763,0,1.366-0.41,1.366-1.127
	C18.078,38.766,17.748,38.442,17.15,38.299z"/>
<path fill="#151416" d="M20.344,36.881h-1.531v3.498h0.905v-1.088h0.626c0.758,0,1.27-0.428,1.27-1.203
	C21.613,37.309,21.102,36.881,20.344,36.881z M20.248,38.528h-0.53v-0.879h0.53c0.33,0,0.479,0.172,0.479,0.439
	C20.727,38.352,20.578,38.528,20.248,38.528z"/>
<path fill="#151416" d="M23.129,36.881l-1.334,3.498h0.906l0.244-0.68h1.271l0.25,0.68h0.928l-1.332-3.498H23.129z M23.225,38.95
	l0.359-0.986l0.359,0.986H23.225z"/>
<path fill="#151416" d="M28.881,38.073c0-0.764-0.52-1.191-1.271-1.191h-1.572v3.498h0.906v-1.156h0.318l0.729,1.156h1.014
	l-0.818-1.254C28.611,38.965,28.881,38.602,28.881,38.073z M27.512,38.493h-0.568v-0.844h0.568c0.326,0,0.475,0.168,0.475,0.424
	S27.838,38.493,27.512,38.493z"/>
<polygon fill="#151416" points="29.646,40.379 32.148,40.379 32.148,39.586 30.547,39.586 30.547,38.983 32.012,38.983 
	32.012,38.213 30.547,38.213 30.547,37.668 32.148,37.668 32.148,36.881 29.646,36.881 "/>
<polygon fill="#151416" points="35.148,38.807 33.799,36.881 32.943,36.881 32.943,40.379 33.826,40.379 33.826,38.334 
	35.291,40.379 36.031,40.379 36.031,36.881 35.148,36.881 "/>
<path fill="#151416" d="M38.439,37.627c0.318,0,0.506,0.17,0.598,0.428h0.912c-0.125-0.713-0.639-1.23-1.51-1.23
	c-0.98,0-1.68,0.746-1.68,1.805s0.699,1.807,1.68,1.807c0.871,0,1.385-0.52,1.51-1.236h-0.912c-0.092,0.262-0.279,0.434-0.598,0.434
	c-0.484,0-0.758-0.434-0.758-1.004C37.682,38.055,37.955,37.627,38.439,37.627z"/>
<rect x="40.672" y="36.881" fill="#151416" width="0.916" height="3.498"/>
<path fill="#151416" d="M43.562,36.881l-1.332,3.498h0.906l0.244-0.68h1.271l0.25,0.68h0.928l-1.332-3.498H43.562z M43.66,38.95
	l0.359-0.986l0.359,0.986H43.66z"/>
<polygon fill="#151416" points="47.719,40.856 48.494,40.856 49.906,36.678 49.133,36.678 "/>
<rect x="52.02" y="36.881" fill="#151416" width="0.916" height="3.498"/>
<polygon fill="#151416" points="56.004,38.807 54.654,36.881 53.801,36.881 53.801,40.379 54.684,40.379 54.684,38.334 
	56.146,40.379 56.887,40.379 56.887,36.881 56.004,36.881 "/>
<polygon fill="#151416" points="57.752,40.379 58.658,40.379 58.658,39.143 60.088,39.143 60.088,38.368 58.658,38.368 
	58.658,37.672 60.213,37.672 60.213,36.881 57.752,36.881 "/>
<path fill="#151416" d="M62.518,36.825c-1.008,0-1.703,0.758-1.703,1.805c0,1.043,0.695,1.807,1.703,1.807
	c1.016,0,1.715-0.764,1.715-1.807C64.232,37.583,63.533,36.825,62.518,36.825z M62.518,39.633c-0.471,0-0.779-0.4-0.779-1.004
	s0.309-1.002,0.779-1.002c0.475,0,0.793,0.398,0.793,1.002S62.992,39.633,62.518,39.633z"/>
<path fill="#151416" d="M67.797,38.073c0-0.764-0.518-1.191-1.27-1.191h-1.572v3.498h0.906v-1.156h0.318l0.729,1.156h1.014
	l-0.818-1.254C67.529,38.965,67.797,38.602,67.797,38.073z M66.43,38.493h-0.568v-0.844h0.568c0.326,0,0.473,0.168,0.473,0.424
	S66.756,38.493,66.43,38.493z"/>
<polygon fill="#151416" points="70.449,39.057 69.682,36.881 68.564,36.881 68.564,40.379 69.42,40.379 69.42,38.299 70.148,40.379 
	70.74,40.379 71.465,38.299 71.465,40.379 72.324,40.379 72.324,36.881 71.213,36.881 "/>
<path fill="#151416" d="M74.299,36.881l-1.332,3.498h0.904l0.246-0.68h1.27l0.252,0.68h0.928l-1.334-3.498H74.299z M74.396,38.95
	l0.359-0.986l0.357,0.986H74.396z"/>
<path fill="#151416" d="M78.559,37.627c0.318,0,0.508,0.17,0.598,0.428h0.912c-0.125-0.713-0.639-1.23-1.51-1.23
	c-0.98,0-1.68,0.746-1.68,1.805s0.699,1.807,1.68,1.807c0.871,0,1.385-0.52,1.51-1.236h-0.912c-0.09,0.262-0.279,0.434-0.598,0.434
	c-0.484,0-0.758-0.434-0.758-1.004C77.801,38.055,78.074,37.627,78.559,37.627z"/>
<rect x="80.791" y="36.881" fill="#151416" width="0.916" height="3.498"/>
<polygon fill="#151416" points="85.061,35.844 84.145,35.844 83.678,36.584 84.555,36.584 "/>
<path fill="#151416" d="M84.139,36.825c-1.008,0-1.703,0.758-1.703,1.805c0,1.043,0.695,1.807,1.703,1.807
	c1.014,0,1.715-0.764,1.715-1.807C85.854,37.583,85.152,36.825,84.139,36.825z M84.139,39.633c-0.473,0-0.779-0.4-0.779-1.004
	s0.307-1.002,0.779-1.002s0.793,0.398,0.793,1.002S84.611,39.633,84.139,39.633z"/>
<polygon fill="#151416" points="88.779,38.807 87.43,36.881 86.576,36.881 86.576,40.379 87.457,40.379 87.457,38.334 
	88.922,40.379 89.664,40.379 89.664,36.881 88.779,36.881 "/>
<polygon fill="#151416" points="91.773,40.856 92.549,40.856 93.963,36.678 93.188,36.678 "/>
<path fill="#151416" d="M97.605,36.881h-1.531v3.498h0.906v-1.088h0.625c0.758,0,1.271-0.428,1.271-1.203
	C98.877,37.309,98.363,36.881,97.605,36.881z M97.508,38.528H96.98v-0.879h0.527c0.332,0,0.48,0.172,0.48,0.439
	C97.988,38.352,97.84,38.528,97.508,38.528z"/>
<path fill="#151416" d="M100.391,36.881l-1.334,3.498h0.906l0.246-0.68h1.27l0.25,0.68h0.928l-1.332-3.498H100.391z M100.486,38.95
	l0.359-0.986l0.359,0.986H100.486z"/>
<path fill="#151416" d="M106.143,38.073c0-0.764-0.52-1.191-1.271-1.191h-1.572v3.498h0.906v-1.156h0.318l0.73,1.156h1.014
	l-0.82-1.254C105.873,38.965,106.143,38.602,106.143,38.073z M104.773,38.493h-0.568v-0.844h0.568c0.326,0,0.475,0.168,0.475,0.424
	S105.1,38.493,104.773,38.493z"/>
<polygon fill="#151416" points="106.721,37.668 107.799,37.668 107.799,40.379 108.715,40.379 108.715,37.668 109.797,37.668 
	109.797,36.881 106.721,36.881 "/>
<rect x="110.514" y="36.881" fill="#151416" width="0.916" height="3.498"/>
<path fill="#151416" d="M113.84,37.627c0.318,0,0.508,0.17,0.598,0.428h0.912c-0.127-0.713-0.639-1.23-1.51-1.23
	c-0.98,0-1.682,0.746-1.682,1.805s0.701,1.807,1.682,1.807c0.871,0,1.383-0.52,1.51-1.236h-0.912
	c-0.09,0.262-0.279,0.434-0.598,0.434c-0.484,0-0.758-0.434-0.758-1.004C113.082,38.055,113.355,37.627,113.84,37.627z"/>
<rect x="116.07" y="36.881" fill="#151416" width="0.918" height="3.498"/>
<path fill="#151416" d="M119.385,36.881h-1.531v3.498h0.904v-1.088h0.627c0.758,0,1.27-0.428,1.27-1.203
	C120.654,37.309,120.143,36.881,119.385,36.881z M119.289,38.528h-0.531v-0.879h0.531c0.33,0,0.479,0.172,0.479,0.439
	C119.768,38.352,119.619,38.528,119.289,38.528z"/>
<path fill="#151416" d="M122.168,36.881l-1.332,3.498h0.906l0.246-0.68h1.27l0.25,0.68h0.928l-1.332-3.498H122.168z M122.266,38.95
	l0.359-0.986l0.359,0.986H122.266z"/>
<path fill="#151416" d="M126.428,37.627c0.32,0,0.508,0.17,0.6,0.428h0.91c-0.125-0.713-0.639-1.23-1.51-1.23
	c-0.979,0-1.68,0.746-1.68,1.805s0.701,1.807,1.68,1.807c0.871,0,1.385-0.52,1.51-1.236h-0.91c-0.092,0.262-0.279,0.434-0.6,0.434
	c-0.482,0-0.758-0.434-0.758-1.004C125.67,38.055,125.945,37.627,126.428,37.627z"/>
<rect x="128.66" y="36.881" fill="#151416" width="0.918" height="3.498"/>
<path fill="#151416" d="M132.008,36.825c-1.008,0-1.703,0.758-1.703,1.805c0,1.043,0.695,1.807,1.703,1.807
	c1.014,0,1.715-0.764,1.715-1.807C133.723,37.583,133.021,36.825,132.008,36.825z M132.008,39.633c-0.473,0-0.779-0.4-0.779-1.004
	s0.307-1.002,0.779-1.002s0.793,0.398,0.793,1.002S132.48,39.633,132.008,39.633z"/>
<polygon fill="#151416" points="132.932,35.844 132.014,35.844 131.547,36.584 132.424,36.584 "/>
<polygon fill="#151416" points="136.648,38.807 135.299,36.881 134.445,36.881 134.445,40.379 135.328,40.379 135.328,38.334 
	136.791,40.379 137.533,40.379 137.533,36.881 136.648,36.881 "/>
<polygon fill="#151416" points="139.643,40.856 140.418,40.856 141.832,36.678 141.055,36.678 "/>
<rect x="143.941" y="36.881" fill="#151416" width="0.918" height="3.498"/>
<polygon fill="#151416" points="147.93,38.807 146.578,36.881 145.725,36.881 145.725,40.379 146.607,40.379 146.607,38.334 
	148.072,40.379 148.812,40.379 148.812,36.881 147.93,36.881 "/>
<path fill="#151416" d="M151.221,37.627c0.318,0,0.506,0.17,0.598,0.428h0.91c-0.125-0.713-0.637-1.23-1.508-1.23
	c-0.98,0-1.682,0.746-1.682,1.805s0.701,1.807,1.682,1.807c0.871,0,1.383-0.52,1.508-1.236h-0.91
	c-0.092,0.262-0.279,0.434-0.598,0.434c-0.486,0-0.758-0.434-0.758-1.004C150.463,38.055,150.734,37.627,151.221,37.627z"/>
<rect x="153.451" y="36.881" fill="#151416" width="0.916" height="3.498"/>
<path fill="#151416" d="M156.555,36.881h-1.32v3.498h1.32c1.098,0,1.766-0.684,1.766-1.75
	C158.32,37.565,157.652,36.881,156.555,36.881z M156.51,39.586h-0.375v-1.918h0.375c0.582,0,0.904,0.369,0.904,0.961
	C157.414,39.217,157.092,39.586,156.51,39.586z"/>
<polygon fill="#151416" points="159.043,40.379 161.543,40.379 161.543,39.586 159.943,39.586 159.943,38.983 161.406,38.983 
	161.406,38.213 159.943,38.213 159.943,37.668 161.543,37.668 161.543,36.881 159.043,36.881 "/>
<polygon fill="#151416" points="164.543,38.807 163.193,36.881 162.34,36.881 162.34,40.379 163.223,40.379 163.223,38.334 
	164.686,40.379 165.426,40.379 165.426,36.881 164.543,36.881 "/>
<path fill="#151416" d="M167.834,37.627c0.32,0,0.508,0.17,0.6,0.428h0.91c-0.125-0.713-0.639-1.23-1.51-1.23
	c-0.979,0-1.68,0.746-1.68,1.805s0.701,1.807,1.68,1.807c0.871,0,1.385-0.52,1.51-1.236h-0.91c-0.092,0.262-0.279,0.434-0.6,0.434
	c-0.484,0-0.758-0.434-0.758-1.004C167.076,38.055,167.35,37.627,167.834,37.627z"/>
<rect x="170.064" y="36.881" fill="#151416" width="0.918" height="3.498"/>
<path fill="#151416" d="M173.893,36.881h-0.934l-1.334,3.498h0.906l0.246-0.68h1.27l0.25,0.68h0.928L173.893,36.881z M173.055,38.95
	l0.359-0.986l0.359,0.986H173.055z"/>
</svg>
